<svg version="1.1" id="Layer_1" xmlns="http://www.w3.org/2000/svg" xmlns:xlink="http://www.w3.org/1999/xlink" x="0px" y="0px"
	 width="100%" viewBox="0 0 343 131" enable-background="new 0 0 343 131" xml:space="preserve">
<path fill="#000000" opacity="1.000000" stroke="none" 
	d="
M260.000000,132.000000 
	C173.333344,132.000000 87.166687,132.000000 1.000023,132.000000 
	C1.000015,88.333351 1.000015,44.666698 1.000008,1.000035 
	C115.333305,1.000023 229.666611,1.000023 343.999939,1.000012 
	C343.999939,44.666630 343.999939,88.333260 343.999969,131.999939 
	C316.166656,132.000000 288.333344,132.000000 260.000000,132.000000 
M95.648849,115.916748 
	C95.334358,113.613907 95.262474,111.242493 94.636574,109.027657 
	C94.020729,106.848412 93.365021,104.037254 91.755455,102.974525 
	C90.329018,102.032707 87.072472,102.386490 85.504570,103.457581 
	C82.671112,105.393227 83.654099,114.509140 86.772614,117.336472 
	C87.553658,115.976326 88.294792,114.685677 89.320015,112.900291 
	C91.263901,115.222404 92.027908,119.663383 96.780945,116.709564 
	C100.278526,118.674316 104.244011,118.760353 105.800331,115.107407 
	C106.690361,113.018356 104.403450,109.575783 103.486435,106.542542 
	C103.696846,106.282745 104.592834,105.176468 105.488823,104.070190 
	C103.921432,103.513649 102.247406,102.297264 100.807556,102.529945 
	C97.156532,103.119934 96.039810,106.808365 98.369102,109.751976 
	C99.317474,110.950455 100.452980,112.000854 100.785767,112.355011 
	C98.975983,113.934906 97.519760,115.206146 95.648849,115.916748 
M201.573746,115.456520 
	C200.438522,112.334801 199.444748,109.150551 198.104660,106.119400 
	C197.492081,104.733788 196.197220,103.649826 195.211792,102.429062 
	C194.145981,103.507057 192.927765,104.477287 192.064438,105.698441 
	C191.418213,106.612518 191.155029,107.829681 190.850662,108.947121 
	C189.920349,112.362701 187.933365,114.604584 184.230042,113.622292 
	C182.489212,113.160553 181.075058,111.467262 179.512863,110.332062 
	C180.851227,108.946800 182.042816,107.357010 183.582413,106.252167 
	C184.521820,105.578018 185.996780,105.650169 187.956985,105.232452 
	C184.680817,101.550667 181.619888,101.388512 178.812469,103.347336 
	C175.273056,105.816895 175.616425,109.753738 176.502975,113.366493 
	C177.243240,116.383194 179.354660,117.720551 182.732422,117.983208 
	C188.583878,118.438232 194.225266,113.164108 200.189972,117.399727 
	C200.350937,117.514030 201.360352,116.433502 202.578812,116.379364 
	C204.898270,116.849678 207.204910,117.426163 209.547012,117.708649 
	C210.071335,117.771889 211.103989,116.870285 211.202271,116.293541 
	C211.298843,115.726784 210.585083,114.514267 210.088867,114.433517 
	C205.624481,113.707108 206.124832,110.340576 205.945190,107.202431 
	C205.863052,105.767570 205.351334,104.357300 204.908875,102.372574 
	C201.924927,105.674629 201.924927,105.674629 201.573746,115.456520 
M237.097183,88.750046 
	C238.486252,89.814156 239.816071,91.689323 241.275070,91.795898 
	C246.406723,92.170761 251.586700,92.046837 256.739197,91.860092 
	C258.046478,91.812706 259.319885,90.831337 260.608856,90.279121 
	C260.680328,89.842247 260.751770,89.405380 260.823242,88.968506 
	C257.373596,87.929710 253.855255,87.430687 253.952103,82.620941 
	C254.353851,62.670834 254.465897,42.713966 254.493912,22.759312 
	C254.495789,21.418196 252.779648,18.851187 252.103973,18.929779 
	C247.476639,19.468027 242.913803,20.560835 238.330185,21.474968 
	C238.103729,21.956955 237.877274,22.438944 237.650818,22.920931 
	C245.959808,23.843718 245.757339,29.690052 245.986801,35.280258 
	C246.020905,36.111267 246.002457,36.944580 246.002502,37.776825 
	C246.003372,51.425884 246.011581,65.074951 246.000488,78.724007 
	C245.993057,87.888184 245.980698,87.888176 237.158173,87.425972 
	C237.976074,84.704536 236.996552,84.357002 234.386276,84.770134 
	C230.162308,85.438675 225.835785,85.957008 221.578918,85.804352 
	C215.068436,85.570862 209.125229,80.145233 208.186325,74.291695 
	C207.335571,68.987900 208.759781,67.520004 214.020676,66.929741 
	C220.607941,66.190651 227.190414,65.195465 233.676224,63.838795 
	C238.203461,62.891811 239.077347,60.700363 235.970078,57.217247 
	C233.085846,53.984135 229.506943,50.753094 225.571320,49.198299 
	C216.043976,45.434464 207.337479,49.258301 202.381073,58.275150 
	C195.459518,70.867035 198.155701,90.394096 217.270859,93.604889 
	C224.610184,94.837685 230.803802,91.131180 237.097183,88.750046 
M28.143797,29.144520 
	C28.135061,48.381214 28.126326,67.617905 27.491285,87.314262 
	C25.199245,87.991165 22.907206,88.668068 20.615168,89.344971 
	C20.693644,89.951744 20.772121,90.558517 20.850597,91.165291 
	C22.353662,91.435791 23.847385,91.856346 25.361423,91.950623 
	C31.660618,92.342903 37.990395,93.139030 44.262508,92.833511 
	C51.316265,92.489906 58.767784,92.335716 65.253746,89.947105 
	C79.426979,84.727486 81.294724,66.912239 69.201187,57.860336 
	C66.990623,56.205750 64.640152,54.738087 62.059311,52.983631 
	C63.452824,51.903599 64.448891,51.050026 65.523811,50.311157 
	C75.736076,43.291573 76.432388,29.101383 66.278282,22.235502 
	C62.520287,19.694469 57.276508,18.410944 52.658875,18.272663 
	C42.380577,17.964865 32.068684,18.712704 21.774277,19.125099 
	C20.871801,19.161251 19.997272,19.894989 18.077427,20.781300 
	C22.971342,22.537296 28.373953,22.053837 28.143797,29.144520 
M157.938339,91.982224 
	C162.930847,91.966179 167.927261,92.050217 172.912796,91.855621 
	C174.002518,91.813080 175.053452,90.776237 176.122238,90.197304 
	C175.186905,89.483208 174.349213,88.387810 173.299835,88.119095 
	C167.920624,86.741661 166.025436,81.172501 169.715820,76.972725 
	C172.056564,74.308884 174.440933,73.435951 177.019165,76.958282 
	C179.861221,80.841103 182.915680,84.573441 185.976929,88.289520 
	C189.519653,92.590088 197.245010,93.522751 201.193802,90.801270 
	C196.730850,86.079376 191.905609,81.537186 187.749664,76.448402 
	C181.105621,68.313019 181.388016,68.277664 189.710297,61.613632 
	C193.489288,58.587624 197.009674,55.121445 198.238144,49.667915 
	C192.826874,49.667915 188.063171,49.667915 181.827454,49.667915 
	C183.749344,51.400810 184.449127,52.200653 185.306412,52.758385 
	C186.205627,53.343380 187.255890,53.696198 188.928177,54.468071 
	C183.446747,62.078659 177.011749,67.621582 168.149139,72.696037 
	C168.149139,68.928520 168.108139,66.370323 168.155991,63.813797 
	C168.407883,50.357082 168.746811,36.901279 168.849045,23.443594 
	C168.859299,22.095146 167.395706,19.529274 166.760300,19.574057 
	C161.922745,19.914988 157.121063,20.764971 152.308212,21.456434 
	C152.181274,22.054487 152.054337,22.652538 151.927399,23.250591 
	C160.313065,23.774309 160.035797,29.501425 160.011887,35.111301 
	C159.983490,41.768929 160.128693,48.429592 159.975998,55.083836 
	C159.755081,64.710747 159.447281,74.339836 158.871887,83.949760 
	C158.789368,85.327789 157.101868,86.697037 155.971832,87.895630 
	C155.161301,88.755302 154.041718,89.323593 153.060013,90.021873 
	C154.398148,90.667999 155.736298,91.314133 157.938339,91.982224 
M304.597992,49.008373 
	C301.888885,49.310272 299.179749,49.612175 296.484680,49.912514 
	C299.221649,53.864201 301.836456,56.664394 303.323212,59.971706 
	C307.538422,69.348480 311.502441,78.854736 315.074646,88.491913 
	C315.928558,90.795662 315.824860,94.454536 314.520996,96.378059 
	C309.841156,103.282021 306.486969,111.460739 298.259888,115.408775 
	C297.551727,115.748604 296.970123,116.931694 296.889954,117.776276 
	C296.844116,118.258537 297.841400,119.110062 298.524170,119.345627 
	C301.913208,120.514923 309.343353,117.512993 310.889252,114.112457 
	C317.003082,100.663521 322.658447,86.996368 329.113800,73.716377 
	C332.640747,66.460724 332.873077,57.313301 340.713837,52.345013 
	C341.216827,52.026272 341.588837,50.701630 341.334991,50.177624 
	C340.967529,49.418995 339.964081,48.452770 339.246887,48.464840 
	C335.269806,48.531754 331.289978,48.792721 327.329102,49.173939 
	C326.509735,49.252800 325.766479,50.121902 324.988129,50.626797 
	C325.671814,51.379234 326.281647,52.688370 327.051636,52.790501 
	C330.985962,53.312370 331.020416,55.507923 329.978607,58.509018 
	C327.963226,64.314713 326.070312,70.162933 324.052917,75.967903 
	C323.712799,76.946609 323.002991,77.796837 321.883057,79.686684 
	C319.315613,73.804649 317.240387,68.821960 314.975342,63.927116 
	C312.818848,59.266705 309.693665,54.626511 316.981354,50.904079 
	C316.765015,50.449928 316.548676,49.995777 316.332367,49.541626 
	C312.738220,49.363514 309.144104,49.185402 304.597992,49.008373 
M89.484413,76.744659 
	C86.893555,68.248283 87.383202,67.755035 95.842873,66.823845 
	C102.260872,66.117393 108.623566,64.837639 114.973480,63.618317 
	C117.528412,63.127720 119.632324,61.657200 117.666725,58.741146 
	C110.627716,48.298485 98.058983,43.846069 87.668587,52.087616 
	C82.668533,56.053600 80.680817,61.491470 79.535942,67.563965 
	C77.872269,76.388206 81.953957,86.458855 89.005157,90.461922 
	C99.520782,96.431793 110.296082,93.251678 116.905518,87.786194 
	C117.554230,87.249763 117.584160,85.965012 118.091751,84.464668 
	C107.102150,86.328514 96.633102,88.679367 89.484413,76.744659 
M286.345886,85.969666 
	C274.463409,86.850197 268.935547,80.767822 267.422546,74.383972 
	C266.193726,69.199173 267.657288,67.517563 272.876099,66.913918 
	C279.610138,66.134995 286.317596,65.017059 292.974579,63.725899 
	C296.447296,63.052338 297.833405,60.712528 295.600494,57.501186 
	C288.508484,47.301624 272.588867,43.579403 264.877686,53.900665 
	C261.819183,57.994411 259.633850,63.137569 258.434265,68.134987 
	C256.360382,76.774704 261.236755,87.242874 268.051300,91.022690 
	C275.905457,95.379150 288.280151,94.188965 294.749390,88.344215 
	C295.565491,87.606895 295.921234,86.360069 296.927399,84.572830 
	C292.979889,85.143120 290.109741,85.557755 286.345886,85.969666 
M126.987053,68.505905 
	C126.986732,72.172348 126.910477,75.840767 127.005989,79.504715 
	C127.116974,83.762383 127.504829,88.067009 121.593239,88.851318 
	C121.272720,88.893837 121.081108,89.908020 120.833008,90.462036 
	C126.178055,93.086548 143.170120,92.581146 146.566879,89.229553 
	C144.865204,88.756348 143.545944,88.021133 142.278076,88.101028 
	C136.950409,88.436813 135.770813,85.528664 135.963043,80.943886 
	C136.172333,75.953018 136.029343,70.946442 136.002686,65.946922 
	C135.985443,62.713718 135.920929,59.436234 139.526657,57.855053 
	C142.847565,56.398777 145.944717,56.592667 148.735138,59.278362 
	C151.142273,61.595154 153.045288,60.080109 153.439468,57.702553 
	C153.780533,55.645332 153.484390,52.243866 152.203949,51.431164 
	C149.986694,50.023853 146.727203,49.550529 144.023071,49.829800 
	C141.616119,50.078388 139.369278,51.877132 137.054398,52.990459 
	C134.732468,47.983494 124.213844,47.210655 120.576561,51.945156 
	C128.562286,52.416344 126.875397,58.171497 126.981804,63.010357 
	C127.014771,64.509537 126.986992,66.010048 126.987053,68.505905 
M40.131252,113.893860 
	C40.815708,115.014191 41.500160,116.134521 42.184616,117.254845 
	C43.118526,115.892670 44.052437,114.530495 45.028214,113.107246 
	C46.633568,114.609238 48.326057,116.192749 50.129150,117.879738 
	C53.267117,112.409767 52.609848,104.681313 48.953598,102.591591 
	C48.435257,104.096252 47.936096,105.545242 47.259525,107.509232 
	C46.377140,106.373100 45.915070,105.490967 45.201656,104.926506 
	C44.115799,104.067383 42.855816,103.428329 41.669777,102.695824 
	C41.152916,103.995285 40.347164,105.259964 40.185543,106.602196 
	C39.930237,108.722527 40.107033,110.894882 40.131252,113.893860 
M243.930405,117.244118 
	C245.002625,116.348244 246.074829,115.452362 247.309357,114.420845 
	C248.034378,115.392220 248.600861,116.894577 249.428619,117.055847 
	C250.295532,117.224770 252.260269,116.133629 252.279587,115.545135 
	C252.380157,112.481201 252.541000,109.229362 251.613052,106.392189 
	C251.049362,104.668739 248.735764,103.049576 246.856323,102.396729 
	C245.693771,101.992905 242.570145,103.462975 242.555740,104.139351 
	C242.463882,108.448158 242.991943,112.770180 243.930405,117.244118 
M144.085617,108.779884 
	C145.339035,111.590714 146.110870,114.834526 148.068649,117.012085 
	C148.923767,117.963188 153.511307,117.458008 154.129959,116.347435 
	C155.663727,113.594154 156.787491,109.967308 156.308640,106.974129 
	C156.009842,105.106430 152.664368,102.784470 150.389206,102.393341 
	C146.897385,101.793037 144.681595,104.339195 144.085617,108.779884 
M228.085312,109.642052 
	C227.660828,113.428345 229.214905,116.423805 232.752533,117.389862 
	C234.612640,117.897820 238.420273,117.116425 238.825012,116.001312 
	C239.978317,112.823845 240.572937,109.020386 239.886032,105.781677 
	C239.556274,104.226944 235.893356,102.552605 233.648041,102.413254 
	C229.713486,102.169060 228.729919,105.586853 228.085312,109.642052 
M254.052643,106.146156 
	C254.187943,109.699425 254.323227,113.252701 254.458511,116.805969 
	C255.008026,116.810143 255.557541,116.814323 256.107056,116.818504 
	C256.657867,115.167091 257.208710,113.515686 257.871582,111.528374 
	C259.795959,113.878685 261.354309,115.781960 263.098755,117.912521 
	C265.774872,113.055565 265.623840,106.192635 262.913635,102.975883 
	C262.315887,104.583595 261.788208,106.002884 261.071716,107.929993 
	C259.830933,106.416344 258.941986,105.277763 257.995911,104.188858 
	C255.867630,101.739258 254.689636,102.576637 254.052643,106.146156 
M73.009453,108.638107 
	C73.017265,110.123550 72.754608,111.676544 73.104248,113.076622 
	C73.503166,114.673950 74.211769,117.222633 75.202209,117.437393 
	C77.532616,117.942703 80.110733,117.305588 82.588615,117.130714 
	C82.610924,116.564568 82.633232,115.998421 82.655540,115.432266 
	C81.328087,114.677094 80.000626,113.921913 78.396606,113.009399 
	C79.876228,112.274353 81.269943,111.581985 83.170532,110.637810 
	C80.505539,108.622467 79.439957,107.816650 78.709877,107.264542 
	C79.715492,105.840836 80.482101,104.755493 81.248718,103.670151 
	C79.807175,103.153320 78.376968,102.238487 76.921875,102.197014 
	C73.112183,102.088409 73.057571,104.981552 73.009453,108.638107 
M26.807016,113.337189 
	C28.949306,114.811775 30.936205,116.824219 33.306660,117.509064 
	C34.323868,117.802948 36.553585,115.584213 37.461754,114.050690 
	C38.219746,112.770744 38.138371,110.785393 37.914879,109.184158 
	C37.621548,107.082542 36.823856,105.051315 36.243073,102.989815 
	C35.492527,104.906670 34.728889,106.818604 34.005314,108.745583 
	C33.894600,109.040421 34.068615,109.450859 33.940071,109.728798 
	C33.431484,110.828445 32.854927,111.896660 32.303570,112.976524 
	C31.560659,111.898949 30.446716,110.912308 30.155489,109.724030 
	C29.621769,107.546356 29.573622,105.249664 29.201551,101.913551 
	C24.858295,105.801758 26.181471,109.294792 26.807016,113.337189 
M275.203003,105.929024 
	C274.809418,109.680336 270.896088,112.914742 273.325775,118.020660 
	C276.943054,113.289383 280.308807,115.814011 284.212158,117.228172 
	C283.558044,113.110207 282.627960,109.249031 281.190186,105.587204 
	C279.737274,101.886833 277.621857,101.383102 275.203003,105.929024 
M68.178612,103.940506 
	C67.276016,105.705292 66.373421,107.470078 65.104988,109.950165 
	C64.137993,107.577019 63.741879,106.110931 62.969799,104.880814 
	C62.440132,104.036911 61.387798,103.521049 60.569099,102.858543 
	C60.222633,103.826340 59.387634,104.931908 59.614941,105.737885 
	C60.559299,109.086334 61.576992,112.460304 63.049095,115.599159 
	C64.236183,118.130287 66.490791,118.626823 67.786873,115.730072 
	C69.270599,112.413933 70.239990,108.841019 71.158310,105.308304 
	C71.731331,103.103912 70.976845,101.909897 68.178612,103.940506 
M125.771912,105.191185 
	C126.860275,108.282288 127.892029,111.395218 129.070587,114.451546 
	C129.436996,115.401756 130.201187,116.198578 130.783279,117.065620 
	C131.491409,116.117889 132.457779,115.266129 132.853180,114.202171 
	C133.643372,112.075928 134.148148,109.840500 134.717896,107.636490 
	C135.131180,106.037796 135.459381,104.417107 135.825516,102.806221 
	C134.341370,103.660530 132.865433,104.529762 131.365112,105.354660 
	C131.111343,105.494186 130.752655,105.442856 130.440903,105.466652 
	C127.345093,102.341621 127.345093,102.341621 125.771912,105.191185 
M159.041550,106.824585 
	C159.041550,110.134819 159.041550,113.445045 159.041550,116.755280 
	C159.604858,116.826096 160.168167,116.896912 160.731476,116.967735 
	C161.586243,115.519478 162.112808,113.276604 163.354004,112.763985 
	C168.090103,110.807915 166.769669,109.006744 163.367828,107.056541 
	C164.935486,106.076950 166.218353,105.275330 167.620789,104.399002 
	C163.482010,100.697121 160.867889,101.299355 159.041550,106.824585 
M224.558228,106.113899 
	C225.468964,105.373207 226.379700,104.632515 227.290436,103.891815 
	C226.243576,103.295486 225.066803,102.059196 224.177643,102.239700 
	C222.470520,102.586258 219.717590,103.523506 219.529678,104.590889 
	C218.816528,108.642044 218.204254,112.949783 220.130447,117.180634 
	C222.702820,114.216881 224.614136,112.014771 226.422134,109.931717 
	C225.578888,108.642105 224.821625,107.483986 224.558228,106.113899 
M114.015488,103.562401 
	C115.042313,107.195335 115.979904,110.857422 117.151360,114.443100 
	C117.494217,115.492531 118.502197,116.324669 119.205322,117.256401 
	C119.788857,116.204308 120.646965,115.213951 120.900177,114.087593 
	C121.470619,111.550217 121.044708,108.523178 122.292625,106.464142 
	C124.320511,103.118195 123.195694,102.191536 120.100021,102.129410 
	C118.185867,102.090981 116.259529,102.660004 114.015488,103.562401 
M216.928345,110.428215 
	C216.559433,107.850395 216.190506,105.272575 215.821594,102.694748 
	C212.064621,107.292503 212.387711,114.432701 215.857391,117.699814 
	C216.274658,115.194305 216.598816,113.247925 216.928345,110.428215 
M108.051888,113.041214 
	C108.566696,114.475540 109.081497,115.909874 109.596306,117.344200 
	C110.288292,117.249245 110.980278,117.154289 111.672264,117.059334 
	C111.672264,112.809929 111.726257,108.558800 111.591057,104.313698 
	C111.577110,103.875786 110.347359,103.056755 109.839287,103.163612 
	C109.241035,103.289436 108.445663,104.193321 108.379021,104.827431 
	C108.122932,107.264053 108.124245,109.727730 108.051888,113.041214 
M267.112732,114.702187 
	C267.786530,115.467712 268.460297,116.233238 269.134094,116.998772 
	C269.692261,116.254921 270.692108,115.533905 270.731934,114.763268 
	C270.902863,111.456444 270.894226,108.128906 270.697876,104.823967 
	C270.657501,104.144539 269.531006,103.529648 268.905151,102.885010 
	C268.321869,103.563538 267.287415,104.208534 267.234039,104.926460 
	C267.012970,107.900505 267.088470,110.896584 267.112732,114.702187 
M54.111839,114.698235 
	C54.783936,115.466820 55.456036,116.235397 56.128136,117.003983 
	C56.655262,116.443153 57.401932,115.971748 57.672882,115.306572 
	C59.125847,111.739540 57.741776,104.614189 54.052868,102.108841 
	C54.052868,106.591240 54.052868,110.236061 54.111839,114.698235 
z"/>
<path fill="#2A2A2A" opacity="1.000000" stroke="none" 
	d="
M28.199402,28.240173 
	C28.373953,22.053837 22.971342,22.537296 18.077427,20.781300 
	C19.997272,19.894989 20.871801,19.161251 21.774277,19.125099 
	C32.068684,18.712704 42.380577,17.964865 52.658875,18.272663 
	C57.276508,18.410944 62.520287,19.694469 66.278282,22.235502 
	C76.432388,29.101383 75.736076,43.291573 65.523811,50.311157 
	C64.448891,51.050026 63.452824,51.903599 62.059311,52.983631 
	C64.640152,54.738087 66.990623,56.205750 69.201187,57.860336 
	C81.294724,66.912239 79.426979,84.727486 65.253746,89.947105 
	C58.767784,92.335716 51.316265,92.489906 44.262508,92.833511 
	C37.990395,93.139030 31.660618,92.342903 25.361423,91.950623 
	C23.847385,91.856346 22.353662,91.435791 20.850597,91.165291 
	C20.772121,90.558517 20.693644,89.951744 20.615168,89.344971 
	C22.907206,88.668068 25.199245,87.991165 28.001888,86.731812 
	C28.674871,84.842628 28.975908,83.536171 28.978569,82.229103 
	C29.011557,66.022324 29.026041,49.815361 28.966604,33.608734 
	C28.960039,31.818300 28.466885,30.029650 28.199402,28.240173 
M39.985653,71.485672 
	C40.022221,74.810173 39.618950,78.219879 40.241055,81.430939 
	C40.699970,83.799690 41.948219,86.733902 43.806721,87.970703 
	C48.344528,90.990578 57.755630,88.416756 60.880878,83.956940 
	C64.744408,78.443558 65.192520,72.381439 62.546814,66.475906 
	C59.581860,59.857773 53.683815,56.807358 46.663059,56.095814 
	C41.265335,55.548756 40.136951,56.678978 40.012077,62.016361 
	C39.945980,64.841354 39.990822,67.668945 39.985653,71.485672 
M39.987446,43.355087 
	C40.463505,45.886395 40.304668,48.817738 41.581635,50.844406 
	C43.067421,53.202496 55.825432,52.271507 58.122715,50.145729 
	C62.424885,46.164742 63.224594,38.517239 60.063229,31.588905 
	C56.970238,24.810408 51.627716,21.423029 45.255287,22.129177 
	C41.735058,22.519264 39.890560,24.212336 39.985310,27.957998 
	C40.106953,32.766865 39.996624,37.581600 39.987446,43.355087 
z"/>
<path fill="#2A2A2A" opacity="1.000000" stroke="none" 
	d="
M157.506378,91.971245 
	C155.736298,91.314133 154.398148,90.667999 153.060013,90.021873 
	C154.041718,89.323593 155.161301,88.755302 155.971832,87.895630 
	C157.101868,86.697037 158.789368,85.327789 158.871887,83.949760 
	C159.447281,74.339836 159.755081,64.710747 159.975998,55.083836 
	C160.128693,48.429592 159.983490,41.768929 160.011887,35.111301 
	C160.035797,29.501425 160.313065,23.774309 151.927399,23.250591 
	C152.054337,22.652538 152.181274,22.054487 152.308212,21.456434 
	C157.121063,20.764971 161.922745,19.914988 166.760300,19.574057 
	C167.395706,19.529274 168.859299,22.095146 168.849045,23.443594 
	C168.746811,36.901279 168.407883,50.357082 168.155991,63.813797 
	C168.108139,66.370323 168.149139,68.928520 168.149139,72.696037 
	C177.011749,67.621582 183.446747,62.078659 188.928177,54.468071 
	C187.255890,53.696198 186.205627,53.343380 185.306412,52.758385 
	C184.449127,52.200653 183.749344,51.400810 181.827454,49.667915 
	C188.063171,49.667915 192.826874,49.667915 198.238144,49.667915 
	C197.009674,55.121445 193.489288,58.587624 189.710297,61.613632 
	C181.388016,68.277664 181.105621,68.313019 187.749664,76.448402 
	C191.905609,81.537186 196.730850,86.079376 201.193802,90.801270 
	C197.245010,93.522751 189.519653,92.590088 185.976929,88.289520 
	C182.915680,84.573441 179.861221,80.841103 177.019165,76.958282 
	C174.440933,73.435951 172.056564,74.308884 169.715820,76.972725 
	C166.025436,81.172501 167.920624,86.741661 173.299835,88.119095 
	C174.349213,88.387810 175.186905,89.483208 176.122238,90.197304 
	C175.053452,90.776237 174.002518,91.813080 172.912796,91.855621 
	C167.927261,92.050217 162.930847,91.966179 157.506378,91.971245 
z"/>
<path fill="#2B2B2B" opacity="1.000000" stroke="none" 
	d="
M305.073975,49.007835 
	C309.144104,49.185402 312.738220,49.363514 316.332367,49.541626 
	C316.548676,49.995777 316.765015,50.449928 316.981354,50.904079 
	C309.693665,54.626511 312.818848,59.266705 314.975342,63.927116 
	C317.240387,68.821960 319.315613,73.804649 321.883057,79.686684 
	C323.002991,77.796837 323.712799,76.946609 324.052917,75.967903 
	C326.070312,70.162933 327.963226,64.314713 329.978607,58.509018 
	C331.020416,55.507923 330.985962,53.312370 327.051636,52.790501 
	C326.281647,52.688370 325.671814,51.379234 324.988129,50.626793 
	C325.766479,50.121902 326.509735,49.252800 327.329102,49.173939 
	C331.289978,48.792721 335.269806,48.531754 339.246887,48.464840 
	C339.964081,48.452770 340.967529,49.418995 341.334991,50.177624 
	C341.588837,50.701630 341.216827,52.026272 340.713837,52.345013 
	C332.873077,57.313301 332.640747,66.460724 329.113800,73.716377 
	C322.658447,86.996368 317.003082,100.663521 310.889252,114.112457 
	C309.343353,117.512993 301.913208,120.514923 298.524170,119.345627 
	C297.841400,119.110062 296.844116,118.258537 296.889954,117.776276 
	C296.970123,116.931694 297.551727,115.748604 298.259888,115.408775 
	C306.486969,111.460739 309.841156,103.282021 314.520996,96.378059 
	C315.824860,94.454536 315.928558,90.795662 315.074646,88.491913 
	C311.502441,78.854736 307.538422,69.348480 303.323212,59.971706 
	C301.836456,56.664394 299.221649,53.864201 296.484680,49.912514 
	C299.179749,49.612175 301.888885,49.310272 305.073975,49.007835 
z"/>
<path fill="#2B2B2B" opacity="1.000000" stroke="none" 
	d="
M89.661011,77.083336 
	C96.633102,88.679367 107.102150,86.328514 118.091751,84.464668 
	C117.584160,85.965012 117.554230,87.249763 116.905518,87.786194 
	C110.296082,93.251678 99.520782,96.431793 89.005157,90.461922 
	C81.953957,86.458855 77.872269,76.388206 79.535942,67.563965 
	C80.680817,61.491470 82.668533,56.053600 87.668587,52.087616 
	C98.058983,43.846069 110.627716,48.298485 117.666725,58.741146 
	C119.632324,61.657200 117.528412,63.127720 114.973480,63.618317 
	C108.623566,64.837639 102.260872,66.117393 95.842873,66.823845 
	C87.383202,67.755035 86.893555,68.248283 89.661011,77.083336 
M97.610497,52.141605 
	C93.513100,52.381821 91.506302,55.136795 90.106201,58.510288 
	C89.048019,61.059933 89.699684,63.065796 92.745720,62.806416 
	C97.576797,62.395035 102.368248,61.518124 107.507759,60.791309 
	C105.982346,55.066158 102.845589,52.849735 97.610497,52.141605 
z"/>
<path fill="#2B2B2B" opacity="1.000000" stroke="none" 
	d="
M286.792725,85.971031 
	C290.109741,85.557755 292.979889,85.143120 296.927399,84.572830 
	C295.921234,86.360069 295.565491,87.606895 294.749390,88.344215 
	C288.280151,94.188965 275.905457,95.379150 268.051300,91.022690 
	C261.236755,87.242874 256.360382,76.774704 258.434265,68.134987 
	C259.633850,63.137569 261.819183,57.994411 264.877686,53.900665 
	C272.588867,43.579403 288.508484,47.301624 295.600494,57.501186 
	C297.833405,60.712528 296.447296,63.052338 292.974579,63.725899 
	C286.317596,65.017059 279.610138,66.134995 272.876099,66.913918 
	C267.657288,67.517563 266.193726,69.199173 267.422546,74.383972 
	C268.935547,80.767822 274.463409,86.850197 286.792725,85.971031 
M268.542419,62.102390 
	C274.704559,64.196388 280.261749,61.762470 286.122070,60.422085 
	C283.727814,54.128780 280.674255,51.625713 275.945923,52.137379 
	C270.465515,52.730427 269.016083,56.892601 268.542419,62.102390 
z"/>
<path fill="#2B2B2B" opacity="1.000000" stroke="none" 
	d="
M237.025940,87.962845 
	C230.803802,91.131180 224.610184,94.837685 217.270859,93.604889 
	C198.155701,90.394096 195.459518,70.867035 202.381073,58.275150 
	C207.337479,49.258301 216.043976,45.434464 225.571320,49.198299 
	C229.506943,50.753094 233.085846,53.984135 235.970078,57.217247 
	C239.077347,60.700363 238.203461,62.891811 233.676224,63.838795 
	C227.190414,65.195465 220.607941,66.190651 214.020676,66.929741 
	C208.759781,67.520004 207.335571,68.987900 208.186325,74.291695 
	C209.125229,80.145233 215.068436,85.570862 221.578918,85.804352 
	C225.835785,85.957008 230.162308,85.438675 234.386276,84.770134 
	C236.996552,84.357002 237.976074,84.704536 237.076004,87.712196 
	C236.993835,87.998421 237.025940,87.962845 237.025940,87.962845 
M216.721924,52.093655 
	C214.209320,54.440998 211.570969,56.678398 209.319092,59.253719 
	C208.979660,59.641922 210.508469,62.704769 211.063248,62.671982 
	C216.330002,62.360733 221.572983,61.647572 227.384888,60.986069 
	C225.131836,55.302715 222.472275,52.313866 216.721924,52.093655 
z"/>
<path fill="#2A2A2A" opacity="1.000000" stroke="none" 
	d="
M236.976715,88.015213 
	C245.980698,87.888176 245.993057,87.888184 246.000488,78.724007 
	C246.011581,65.074951 246.003372,51.425884 246.002502,37.776825 
	C246.002457,36.944580 246.020905,36.111267 245.986801,35.280258 
	C245.757339,29.690052 245.959808,23.843718 237.650818,22.920931 
	C237.877274,22.438944 238.103729,21.956955 238.330185,21.474968 
	C242.913803,20.560835 247.476639,19.468027 252.103973,18.929779 
	C252.779648,18.851187 254.495789,21.418196 254.493912,22.759312 
	C254.465897,42.713966 254.353851,62.670834 253.952103,82.620941 
	C253.855255,87.430687 257.373596,87.929710 260.823242,88.968506 
	C260.751770,89.405380 260.680328,89.842247 260.608856,90.279121 
	C259.319885,90.831337 258.046478,91.812706 256.739197,91.860092 
	C251.586700,92.046837 246.406723,92.170761 241.275070,91.795898 
	C239.816071,91.689323 238.486252,89.814156 237.061554,88.356445 
	C237.025940,87.962845 236.993835,87.998421 236.976715,88.015213 
z"/>
<path fill="#2B2B2B" opacity="1.000000" stroke="none" 
	d="
M126.987038,68.007927 
	C126.986992,66.010048 127.014771,64.509537 126.981804,63.010357 
	C126.875397,58.171497 128.562286,52.416344 120.576561,51.945156 
	C124.213844,47.210655 134.732468,47.983494 137.054398,52.990459 
	C139.369278,51.877132 141.616119,50.078388 144.023071,49.829800 
	C146.727203,49.550529 149.986694,50.023853 152.203949,51.431164 
	C153.484390,52.243866 153.780533,55.645332 153.439468,57.702553 
	C153.045288,60.080109 151.142273,61.595154 148.735138,59.278362 
	C145.944717,56.592667 142.847565,56.398777 139.526657,57.855053 
	C135.920929,59.436234 135.985443,62.713718 136.002686,65.946922 
	C136.029343,70.946442 136.172333,75.953018 135.963043,80.943886 
	C135.770813,85.528664 136.950409,88.436813 142.278076,88.101028 
	C143.545944,88.021133 144.865204,88.756348 146.566879,89.229553 
	C143.170120,92.581146 126.178055,93.086548 120.833008,90.462036 
	C121.081108,89.908020 121.272720,88.893837 121.593239,88.851318 
	C127.504829,88.067009 127.116974,83.762383 127.005989,79.504715 
	C126.910477,75.840767 126.986732,72.172348 126.987038,68.007927 
z"/>
<path fill="#2B2B2B" opacity="1.000000" stroke="none" 
	d="
M201.974121,115.910164 
	C201.360352,116.433502 200.350937,117.514030 200.189972,117.399727 
	C194.225266,113.164108 188.583878,118.438232 182.732422,117.983208 
	C179.354660,117.720551 177.243240,116.383194 176.502975,113.366493 
	C175.616425,109.753738 175.273056,105.816895 178.812469,103.347336 
	C181.619888,101.388512 184.680817,101.550667 187.956985,105.232452 
	C185.996780,105.650169 184.521820,105.578018 183.582413,106.252167 
	C182.042816,107.357010 180.851227,108.946800 179.512863,110.332062 
	C181.075058,111.467262 182.489212,113.160553 184.230042,113.622292 
	C187.933365,114.604584 189.920349,112.362701 190.850662,108.947121 
	C191.155029,107.829681 191.418213,106.612518 192.064438,105.698441 
	C192.927765,104.477287 194.145981,103.507057 195.211792,102.429062 
	C196.197220,103.649826 197.492081,104.733788 198.104660,106.119400 
	C199.444748,109.150551 200.438522,112.334801 201.789276,115.707397 
	C202.004791,115.958275 201.974121,115.910164 201.974121,115.910164 
z"/>
<path fill="#2B2B2B" opacity="1.000000" stroke="none" 
	d="
M40.116104,113.469543 
	C40.107033,110.894882 39.930237,108.722527 40.185543,106.602196 
	C40.347164,105.259964 41.152916,103.995285 41.669777,102.695824 
	C42.855816,103.428329 44.115799,104.067383 45.201656,104.926506 
	C45.915070,105.490967 46.377140,106.373100 47.259525,107.509232 
	C47.936096,105.545242 48.435257,104.096252 48.953598,102.591591 
	C52.609848,104.681313 53.267117,112.409767 50.129150,117.879738 
	C48.326057,116.192749 46.633568,114.609238 45.028214,113.107246 
	C44.052437,114.530495 43.118526,115.892670 42.184616,117.254845 
	C41.500160,116.134521 40.815708,115.014191 40.116104,113.469543 
z"/>
<path fill="#2B2B2B" opacity="1.000000" stroke="none" 
	d="
M96.037163,116.392830 
	C92.027908,119.663383 91.263901,115.222404 89.320015,112.900291 
	C88.294792,114.685677 87.553658,115.976326 86.772614,117.336472 
	C83.654099,114.509140 82.671112,105.393227 85.504570,103.457581 
	C87.072472,102.386490 90.329018,102.032707 91.755455,102.974525 
	C93.365021,104.037254 94.020729,106.848412 94.636574,109.027657 
	C95.262474,111.242493 95.334358,113.613907 95.848320,116.175781 
	C96.047791,116.434814 96.037163,116.392830 96.037163,116.392830 
z"/>
<path fill="#2B2B2B" opacity="1.000000" stroke="none" 
	d="
M243.623108,117.165985 
	C242.991943,112.770180 242.463882,108.448158 242.555740,104.139351 
	C242.570145,103.462975 245.693771,101.992905 246.856323,102.396729 
	C248.735764,103.049576 251.049362,104.668739 251.613052,106.392189 
	C252.541000,109.229362 252.380157,112.481201 252.279587,115.545135 
	C252.260269,116.133629 250.295532,117.224770 249.428619,117.055847 
	C248.600861,116.894577 248.034378,115.392220 247.309357,114.420845 
	C246.074829,115.452362 245.002625,116.348244 243.623108,117.165985 
z"/>
<path fill="#2A2A2A" opacity="1.000000" stroke="none" 
	d="
M144.117706,108.370850 
	C144.681595,104.339195 146.897385,101.793037 150.389206,102.393341 
	C152.664368,102.784470 156.009842,105.106430 156.308640,106.974129 
	C156.787491,109.967308 155.663727,113.594154 154.129959,116.347435 
	C153.511307,117.458008 148.923767,117.963188 148.068649,117.012085 
	C146.110870,114.834526 145.339035,111.590714 144.117706,108.370850 
M148.168625,109.635880 
	C148.935684,110.891266 149.702759,112.146652 150.469849,113.402046 
	C151.229767,112.665680 152.625214,111.921204 152.615952,111.194641 
	C152.597260,109.728210 151.815125,108.271507 151.347870,106.810791 
	C150.306305,107.511391 149.264755,108.211990 148.168625,109.635880 
z"/>
<path fill="#2B2B2B" opacity="1.000000" stroke="none" 
	d="
M228.116058,109.239029 
	C228.729919,105.586853 229.713486,102.169060 233.648041,102.413254 
	C235.893356,102.552605 239.556274,104.226944 239.886032,105.781677 
	C240.572937,109.020386 239.978317,112.823845 238.825012,116.001312 
	C238.420273,117.116425 234.612640,117.897820 232.752533,117.389862 
	C229.214905,116.423805 227.660828,113.428345 228.116058,109.239029 
M232.157867,109.646873 
	C232.892532,110.923500 233.627213,112.200119 234.361893,113.476738 
	C235.346970,112.542305 236.940536,111.725189 237.149567,110.641121 
	C237.367722,109.509735 236.252243,108.121201 235.719803,106.845085 
	C234.553329,107.539421 233.386871,108.233757 232.157867,109.646873 
z"/>
<path fill="#2B2B2B" opacity="1.000000" stroke="none" 
	d="
M254.080109,105.749191 
	C254.689636,102.576637 255.867630,101.739258 257.995911,104.188858 
	C258.941986,105.277763 259.830933,106.416344 261.071716,107.929993 
	C261.788208,106.002884 262.315887,104.583595 262.913635,102.975883 
	C265.623840,106.192635 265.774872,113.055565 263.098755,117.912521 
	C261.354309,115.781960 259.795959,113.878685 257.871582,111.528374 
	C257.208710,113.515686 256.657867,115.167091 256.107056,116.818504 
	C255.557541,116.814323 255.008026,116.810143 254.458511,116.805969 
	C254.323227,113.252701 254.187943,109.699425 254.080109,105.749191 
z"/>
<path fill="#2B2B2B" opacity="1.000000" stroke="none" 
	d="
M73.014496,108.184654 
	C73.057571,104.981552 73.112183,102.088409 76.921875,102.197014 
	C78.376968,102.238487 79.807175,103.153320 81.248718,103.670151 
	C80.482101,104.755493 79.715492,105.840836 78.709877,107.264542 
	C79.439957,107.816650 80.505539,108.622467 83.170532,110.637810 
	C81.269943,111.581985 79.876228,112.274353 78.396606,113.009399 
	C80.000626,113.921913 81.328087,114.677094 82.655540,115.432266 
	C82.633232,115.998421 82.610924,116.564568 82.588615,117.130714 
	C80.110733,117.305588 77.532616,117.942703 75.202209,117.437393 
	C74.211769,117.222633 73.503166,114.673950 73.104248,113.076622 
	C72.754608,111.676544 73.017265,110.123550 73.014496,108.184654 
z"/>
<path fill="#2B2B2B" opacity="1.000000" stroke="none" 
	d="
M26.638145,112.966866 
	C26.181471,109.294792 24.858295,105.801758 29.201551,101.913551 
	C29.573622,105.249664 29.621769,107.546356 30.155489,109.724030 
	C30.446716,110.912308 31.560659,111.898949 32.303570,112.976524 
	C32.854927,111.896660 33.431484,110.828445 33.940071,109.728798 
	C34.068615,109.450859 33.894600,109.040421 34.005314,108.745583 
	C34.728889,106.818604 35.492527,104.906670 36.243073,102.989815 
	C36.823856,105.051315 37.621548,107.082542 37.914879,109.184158 
	C38.138371,110.785393 38.219746,112.770744 37.461754,114.050690 
	C36.553585,115.584213 34.323868,117.802948 33.306660,117.509064 
	C30.936205,116.824219 28.949306,114.811775 26.638145,112.966866 
z"/>
<path fill="#2B2B2B" opacity="1.000000" stroke="none" 
	d="
M275.346252,105.592667 
	C277.621857,101.383102 279.737274,101.886833 281.190186,105.587204 
	C282.627960,109.249031 283.558044,113.110207 284.212158,117.228172 
	C280.308807,115.814011 276.943054,113.289383 273.325775,118.020660 
	C270.896088,112.914742 274.809418,109.680336 275.346252,105.592667 
z"/>
<path fill="#2B2B2B" opacity="1.000000" stroke="none" 
	d="
M96.409058,116.551193 
	C96.037163,116.392830 96.047791,116.434814 96.055664,116.456100 
	C97.519760,115.206146 98.975983,113.934906 100.785767,112.355011 
	C100.452980,112.000854 99.317474,110.950455 98.369102,109.751976 
	C96.039810,106.808365 97.156532,103.119934 100.807556,102.529945 
	C102.247406,102.297264 103.921432,103.513649 105.488823,104.070190 
	C104.592834,105.176468 103.696846,106.282745 103.486435,106.542542 
	C104.403450,109.575783 106.690361,113.018356 105.800331,115.107407 
	C104.244011,118.760353 100.278526,118.674316 96.409058,116.551193 
z"/>
<path fill="#2B2B2B" opacity="1.000000" stroke="none" 
	d="
M68.366692,103.678139 
	C70.976845,101.909897 71.731331,103.103912 71.158310,105.308304 
	C70.239990,108.841019 69.270599,112.413933 67.786873,115.730072 
	C66.490791,118.626823 64.236183,118.130287 63.049095,115.599159 
	C61.576992,112.460304 60.559299,109.086334 59.614941,105.737885 
	C59.387634,104.931908 60.222633,103.826340 60.569099,102.858543 
	C61.387798,103.521049 62.440132,104.036911 62.969799,104.880814 
	C63.741879,106.110931 64.137993,107.577019 65.104988,109.950165 
	C66.373421,107.470078 67.276016,105.705292 68.366692,103.678139 
z"/>
<path fill="#2B2B2B" opacity="1.000000" stroke="none" 
	d="
M125.658203,104.882317 
	C127.345093,102.341621 127.345093,102.341621 130.441681,105.473175 
	C130.752655,105.442856 131.111343,105.494186 131.365112,105.354660 
	C132.865433,104.529762 134.341370,103.660530 135.825516,102.806229 
	C135.459381,104.417107 135.131180,106.037796 134.717896,107.636490 
	C134.148148,109.840500 133.643372,112.075928 132.853180,114.202171 
	C132.457779,115.266129 131.491409,116.117889 130.783279,117.065620 
	C130.201187,116.198578 129.436996,115.401756 129.070587,114.451546 
	C127.892029,111.395218 126.860275,108.282288 125.658203,104.882317 
z"/>
<path fill="#2A2A2A" opacity="1.000000" stroke="none" 
	d="
M159.066132,106.386154 
	C160.867889,101.299355 163.482010,100.697121 167.620789,104.399002 
	C166.218353,105.275330 164.935486,106.076950 163.367828,107.056541 
	C166.769669,109.006744 168.090103,110.807915 163.354004,112.763985 
	C162.112808,113.276604 161.586243,115.519478 160.731476,116.967735 
	C160.168167,116.896912 159.604858,116.826096 159.041550,116.755280 
	C159.041550,113.445045 159.041550,110.134819 159.066132,106.386154 
z"/>
<path fill="#2B2B2B" opacity="1.000000" stroke="none" 
	d="
M224.311295,106.219879 
	C224.821625,107.483986 225.578888,108.642105 226.422134,109.931717 
	C224.614136,112.014771 222.702820,114.216881 220.130447,117.180634 
	C218.204254,112.949783 218.816528,108.642044 219.529678,104.590889 
	C219.717590,103.523506 222.470520,102.586258 224.177643,102.239700 
	C225.066803,102.059196 226.243576,103.295486 227.290436,103.891815 
	C226.379700,104.632515 225.468964,105.373207 224.311295,106.219879 
z"/>
<path fill="#2B2B2B" opacity="1.000000" stroke="none" 
	d="
M114.177078,103.259369 
	C116.259529,102.660004 118.185867,102.090981 120.100021,102.129410 
	C123.195694,102.191536 124.320511,103.118195 122.292625,106.464142 
	C121.044708,108.523178 121.470619,111.550217 120.900177,114.087593 
	C120.646965,115.213951 119.788857,116.204308 119.205322,117.256401 
	C118.502197,116.324669 117.494217,115.492531 117.151360,114.443100 
	C115.979904,110.857422 115.042313,107.195335 114.177078,103.259369 
z"/>
<path fill="#2B2B2B" opacity="1.000000" stroke="none" 
	d="
M202.022217,115.980850 
	C201.924927,105.674629 201.924927,105.674629 204.908875,102.372574 
	C205.351334,104.357300 205.863052,105.767570 205.945190,107.202431 
	C206.124832,110.340576 205.624481,113.707108 210.088867,114.433517 
	C210.585083,114.514267 211.298843,115.726784 211.202271,116.293541 
	C211.103989,116.870285 210.071335,117.771889 209.547012,117.708649 
	C207.204910,117.426163 204.898270,116.849678 202.276459,116.144760 
	C201.974121,115.910164 202.004791,115.958275 202.022217,115.980850 
z"/>
<path fill="#2A2A2A" opacity="1.000000" stroke="none" 
	d="
M216.925659,110.864876 
	C216.598816,113.247925 216.274658,115.194305 215.857391,117.699814 
	C212.387711,114.432701 212.064621,107.292503 215.821594,102.694748 
	C216.190506,105.272575 216.559433,107.850395 216.925659,110.864876 
z"/>
<path fill="#2A2A2A" opacity="1.000000" stroke="none" 
	d="
M108.040718,112.611267 
	C108.124245,109.727730 108.122932,107.264053 108.379021,104.827431 
	C108.445663,104.193321 109.241035,103.289436 109.839287,103.163612 
	C110.347359,103.056755 111.577110,103.875786 111.591057,104.313698 
	C111.726257,108.558800 111.672264,112.809929 111.672264,117.059334 
	C110.980278,117.154289 110.288292,117.249245 109.596306,117.344200 
	C109.081497,115.909874 108.566696,114.475540 108.040718,112.611267 
z"/>
<path fill="#2B2B2B" opacity="1.000000" stroke="none" 
	d="
M267.083893,114.293381 
	C267.088470,110.896584 267.012970,107.900505 267.234039,104.926460 
	C267.287415,104.208534 268.321869,103.563538 268.905151,102.885010 
	C269.531006,103.529648 270.657501,104.144539 270.697876,104.823967 
	C270.894226,108.128906 270.902863,111.456444 270.731934,114.763268 
	C270.692108,115.533905 269.692261,116.254921 269.134094,116.998772 
	C268.460297,116.233238 267.786530,115.467712 267.083893,114.293381 
z"/>
<path fill="#2B2B2B" opacity="1.000000" stroke="none" 
	d="
M54.082352,114.289551 
	C54.052868,110.236061 54.052868,106.591240 54.052868,102.108841 
	C57.741776,104.614189 59.125847,111.739540 57.672882,115.306572 
	C57.401932,115.971748 56.655262,116.443153 56.128136,117.003983 
	C55.456036,116.235397 54.783936,115.466820 54.082352,114.289551 
z"/>
<path fill="#545454" opacity="1.000000" stroke="none" 
	d="
M28.171600,28.692347 
	C28.466885,30.029650 28.960039,31.818300 28.966604,33.608734 
	C29.026041,49.815361 29.011557,66.022324 28.978569,82.229103 
	C28.975908,83.536171 28.674871,84.842628 28.315039,86.501984 
	C28.126326,67.617905 28.135061,48.381214 28.171600,28.692347 
z"/>
<path fill="#000000" opacity="1.000000" stroke="none" 
	d="
M39.985615,70.990517 
	C39.990822,67.668945 39.945980,64.841354 40.012077,62.016361 
	C40.136951,56.678978 41.265335,55.548756 46.663059,56.095814 
	C53.683815,56.807358 59.581860,59.857773 62.546814,66.475906 
	C65.192520,72.381439 64.744408,78.443558 60.880878,83.956940 
	C57.755630,88.416756 48.344528,90.990578 43.806721,87.970703 
	C41.948219,86.733902 40.699970,83.799690 40.241055,81.430939 
	C39.618950,78.219879 40.022221,74.810173 39.985615,70.990517 
z"/>
<path fill="#000000" opacity="1.000000" stroke="none" 
	d="
M39.986843,42.874447 
	C39.996624,37.581600 40.106953,32.766865 39.985310,27.957998 
	C39.890560,24.212336 41.735058,22.519264 45.255287,22.129177 
	C51.627716,21.423029 56.970238,24.810408 60.063229,31.588905 
	C63.224594,38.517239 62.424885,46.164742 58.122715,50.145729 
	C55.825432,52.271507 43.067421,53.202496 41.581635,50.844406 
	C40.304668,48.817738 40.463505,45.886395 39.986843,42.874447 
z"/>
<path fill="#000000" opacity="1.000000" stroke="none" 
	d="
M97.995171,52.142067 
	C102.845589,52.849735 105.982346,55.066158 107.507759,60.791309 
	C102.368248,61.518124 97.576797,62.395035 92.745720,62.806416 
	C89.699684,63.065796 89.048019,61.059933 90.106201,58.510288 
	C91.506302,55.136795 93.513100,52.381821 97.995171,52.142067 
z"/>
<path fill="#000000" opacity="1.000000" stroke="none" 
	d="
M268.402740,61.802460 
	C269.016083,56.892601 270.465515,52.730427 275.945923,52.137379 
	C280.674255,51.625713 283.727814,54.128780 286.122070,60.422085 
	C280.261749,61.762470 274.704559,64.196388 268.402740,61.802460 
z"/>
<path fill="#000000" opacity="1.000000" stroke="none" 
	d="
M217.116150,52.085545 
	C222.472275,52.313866 225.131836,55.302715 227.384888,60.986069 
	C221.572983,61.647572 216.330002,62.360733 211.063248,62.671982 
	C210.508469,62.704769 208.979660,59.641922 209.319092,59.253719 
	C211.570969,56.678398 214.209320,54.440998 217.116150,52.085545 
z"/>
<path fill="#000000" opacity="1.000000" stroke="none" 
	d="
M148.195923,109.274239 
	C149.264755,108.211990 150.306305,107.511391 151.347870,106.810791 
	C151.815125,108.271507 152.597260,109.728210 152.615952,111.194641 
	C152.625214,111.921204 151.229767,112.665680 150.469849,113.402039 
	C149.702759,112.146652 148.935684,110.891266 148.195923,109.274239 
z"/>
<path fill="#000000" opacity="1.000000" stroke="none" 
	d="
M232.189148,109.287483 
	C233.386871,108.233757 234.553329,107.539421 235.719803,106.845093 
	C236.252243,108.121201 237.367722,109.509735 237.149567,110.641121 
	C236.940536,111.725189 235.346970,112.542305 234.361893,113.476738 
	C233.627213,112.200119 232.892532,110.923500 232.189148,109.287483 
z"/>
</svg>